<svg xmlns="http://www.w3.org/2000/svg" width="177.767" height="27.682" viewBox="171.487 158.675 177.767 27.682" enable-background="new 171.487 158.675 177.767 27.682"><path d="M237.39 162.827v2.526h-5.912v16.852h-3.01v-16.852h-5.911v-2.526h14.834"/><path d="M238.077 182.204v-19.378h2.983v8.305h10.858v-8.305h2.983v19.378h-2.983v-8.547h-10.858v8.547h-2.983"/><path d="M270.575 162.827v2.526h-9.89v5.778h9.433v2.526h-9.433v6.048h10.104v2.499h-13.089v-19.379h12.874"/><path d="M282.228 179.84c4.318 0 6.476-2.455 6.476-7.365 0-4.837-2.158-7.256-6.476-7.256-4.409 0-6.61 2.419-6.61 7.256-.001 4.91 2.203 7.365 6.61 7.365m-9.728-7.284c0-6.576 3.242-9.863 9.728-9.863 6.396 0 9.594 3.287 9.594 9.863 0 6.522-3.197 9.783-9.594 9.783-6.486 0-9.728-3.261-9.728-9.783"/><path fill="#FFC60F" d="M184.714 162.659c-2.713 2.713-4.068 5.99-4.068 9.833 0 3.858 1.357 7.153 4.068 9.881 1.241 1.208 2.51 2.138 3.812 2.789.93.464 1.922.798 2.976 1v.185h-14.25c-3.845 0-5.765-1.922-5.765-5.765v-16.11c0-3.858 1.92-5.788 5.765-5.788h14.413v.162c-1.115.218-2.169.565-3.161 1.046-1.285.638-2.548 1.558-3.789 2.766"/><path d="M204.124 173.932c-1.676 1.194-3.842 2.528-6.496 4.001-2.56 1.438-4.803 2.567-6.731 3.388l-2.137.796c-.135-.578-.26-1.433-.377-2.567-.265-2.259-.398-4.752-.398-7.479 0-2.498.18-4.832.541-7.005l.522-2.496 2.267.762c1.963.782 4.093 1.891 6.385 3.33 2.428 1.52 4.511 2.967 6.248 4.339.868.691 1.494 1.223 1.876 1.596l-1.7 1.334"/><path fill="#FFC60F" d="M219.735 164.467v16.121c0 3.845-1.924 5.769-5.769 5.769h-14.539v-.187c2.669-.512 5.001-1.775 7.001-3.792 2.715-2.73 4.071-6.025 4.071-9.886 0-3.845-1.356-7.125-4.071-9.84-2.031-2.033-4.405-3.295-7.118-3.792v-.185h14.656c3.847 0 5.769 1.931 5.769 5.792"/><path fill="#999" d="M296.332 175.578c.649.324 1.42.487 2.309.487 2.119 0 3.18-1.292 3.18-3.877 0-2.232-1.053-3.348-3.158-3.348-.946 0-1.723.07-2.33.212v6.526m-2.351-8.284c1.58-.325 3.148-.488 4.703-.488 3.644 0 5.467 1.802 5.467 5.403 0 3.956-1.831 5.933-5.489 5.933-.904 0-1.681-.17-2.33-.509v4.45h-2.351v-14.79"/><path fill="#999" d="M308.297 162.864v15.277h-2.351v-15.277h2.351"/><path fill="#999" d="M309.967 174.54c0-2.387 1.547-3.581 4.64-3.581 1.088 0 1.963.071 2.627.212v-.806c0-1.045-.91-1.568-2.733-1.568-1.088 0-2.31.169-3.666.508v-1.928c1.299-.381 2.521-.572 3.666-.572 3.391 0 5.086 1.236 5.086 3.709v7.628h-1.293l-.721-.762c-.877.509-1.978.762-3.304.762-2.871.001-4.304-1.199-4.304-3.601m4.64-1.589c-1.525 0-2.289.516-2.289 1.547 0 1.117.65 1.675 1.951 1.675 1.283 0 2.274-.256 2.965-.763v-2.288c-.635-.114-1.512-.17-2.627-.17"/><path fill="#999" d="M320.574 166.805h2.457l2.947 8.518 3.029-8.518h2.395l-4.767 11.654c-.678 1.949-1.913 3.186-3.709 3.709l-.825-1.674c1.244-.578 2.127-1.412 2.648-2.5l-4.174-11.189"/><path fill="#999" d="M341.52 173.247h-7.313c0 1.95 1.336 2.925 4.006 2.925.947 0 1.976-.106 3.094-.318v1.949c-1.088.226-2.332.339-3.731.339-3.814 0-5.721-1.928-5.721-5.785 0-3.701 1.809-5.552 5.424-5.552 3.49 0 4.903 2.148 4.241 6.441m-7.313-2.033h5.172c.084-1.626-.715-2.436-2.397-2.436-1.737-.001-2.662.812-2.775 2.436"/><path fill="#999" d="M343.724 178.142v-11.336h1.693l.297 1.399c.806-.932 1.986-1.399 3.539-1.399v2.034c-1.383 0-2.443.417-3.178 1.25v8.052h-2.351"/></svg>